<svg xmlns="http://www.w3.org/2000/svg" viewBox="0 0 800 480"><rect width="800" height="480" fill="#e8efea"/><circle cx="700" cy="65" r="170" fill="#8bb8c6" opacity=".2"/><rect x="52" y="48" width="696" height="384" rx="12" fill="#f8fbf8" stroke="#cbd8cc"/><text x="80" y="83" font-family="Arial" font-size="12" fill="#506958">PATIENT INTAKE / CONCEPT</text><path d="M52 100H748" stroke="#d7e1d9"/><rect x="82" y="146" width="193" height="210" rx="8" fill="#8bb8c6" opacity=".2"/><circle cx="178" cy="223" r="37" fill="#8bb8c6"/><text x="166" y="232" font-family="Arial" font-size="25" fill="#fff">1</text><text x="178" y="294" text-anchor="middle" font-family="Arial" font-size="13" fill="#345642">Contact</text><path d="M279 235h19l-6-5m6 5l-6 5" fill="none" stroke="#6e9478" stroke-width="2"/><rect x="302" y="146" width="193" height="210" rx="8" fill="#8bb8c6" opacity=".2"/><circle cx="398" cy="223" r="37" fill="#8bb8c6"/><text x="386" y="232" font-family="Arial" font-size="25" fill="#fff">2</text><text x="398" y="294" text-anchor="middle" font-family="Arial" font-size="13" fill="#345642">Collect</text><path d="M499 235h19l-6-5m6 5l-6 5" fill="none" stroke="#6e9478" stroke-width="2"/><rect x="522" y="146" width="193" height="210" rx="8" fill="#8bb8c6" opacity=".2"/><circle cx="618" cy="223" r="37" fill="#8bb8c6"/><text x="606" y="232" font-family="Arial" font-size="25" fill="#fff">3</text><text x="618" y="294" text-anchor="middle" font-family="Arial" font-size="13" fill="#345642">Clinician review</text><text x="80" y="404" font-family="Arial" font-size="10" fill="#708877">PATIENT CONTEXT · CARE WORKFLOW · HUMAN OVERSIGHT</text></svg>